<svg xmlns="http://www.w3.org/2000/svg" width="25" height="25" viewBox="0 0 25 25">
  <g id="CURRENCY" transform="translate(-947.57 -527.58)">
    <g id="Group_2021" data-name="Group 2021">
      <path id="Path_194" data-name="Path 194" d="M960.54,550.56a10,10,0,1,1,10.03-9.97A10.016,10.016,0,0,1,960.54,550.56Zm-.29-18.17c.23,0,.46.01.68,0,.31-.02.45.11.44.42-.01.38.02.75-.01,1.13-.02.3.09.38.38.42a4.958,4.958,0,0,1,2.33,1.03c.24.19.34.38.14.68-.23.35-.41.72-.61,1.09-.14.26-.32.3-.55.12a4.8,4.8,0,0,0-.99-.61,3.2,3.2,0,0,0-2.5-.14,1.225,1.225,0,0,0-.34,2.22,4.939,4.939,0,0,0,1.13.61,19.424,19.424,0,0,1,2.72,1.21,3.042,3.042,0,0,1,1.56,3.04,3.658,3.658,0,0,1-2.93,3.23c-.28.06-.34.18-.33.43a8.514,8.514,0,0,1,0,1.13c-.02.3.07.36.35.32a8.275,8.275,0,0,0,7.06-7.74,8.051,8.051,0,0,0-3-6.74A7.693,7.693,0,0,0,960.25,532.39Zm-.63.03c-.13.01-.23.01-.32.02a8.248,8.248,0,0,0-6.94,7.63,8.05,8.05,0,0,0,4.31,7.72,7.78,7.78,0,0,0,2.65.9c.18.03.25.02.23-.21a8.147,8.147,0,0,1-.01-1.21c.01-.27-.05-.39-.35-.44a5.819,5.819,0,0,1-2.85-1.41.412.412,0,0,1-.05-.68c.26-.31.5-.63.73-.96.2-.27.39-.28.63-.06a4.331,4.331,0,0,0,1.18.76,3.1,3.1,0,0,0,2.72.13,1.259,1.259,0,0,0,.16-2.25,6.886,6.886,0,0,0-1.15-.58,15.693,15.693,0,0,1-2.69-1.26,3.17,3.17,0,0,1-1.23-4.11,3.76,3.76,0,0,1,2.56-1.98c.28-.07.35-.19.35-.47A4.711,4.711,0,0,1,959.62,532.42Z" fill="#717171"/>
    </g>
  </g>
</svg>
