<svg xmlns="http://www.w3.org/2000/svg" width="25" height="25" viewBox="0 0 25 25">
  <g id="E-MAIL" transform="translate(-975 -515)">
    <g id="Group_1946" data-name="Group 1946" transform="translate(975 515)">
      <rect id="Rectangle_294" data-name="Rectangle 294" width="25" height="25" fill="none" opacity="0.68"/>
    </g>
    <g id="Group_119" data-name="Group 119" transform="translate(978 521)">
      <g id="Rectangle_25" data-name="Rectangle 25" transform="translate(0 0)" fill="#fff" stroke="#707070" stroke-linecap="round" stroke-linejoin="round" stroke-width="2.5">
        <rect width="20" height="15.172" rx="5" stroke="none"/>
        <rect x="1.25" y="1.25" width="17.5" height="12.672" rx="3.75" fill="none"/>
      </g>
      <g id="Intersection_1" data-name="Intersection 1" transform="translate(1.136)" fill="#fff" stroke-linecap="round" stroke-linejoin="round">
        <path d="M 8.666103363037109 7.999754905700684 C 8.198783874511719 7.999754905700684 7.759323596954346 7.817665100097656 7.428683757781982 7.487025260925293 L 1.806030869483948 1.864363789558411 C 2.410118341445923 1.467038989067078 3.121898412704468 1.250005125999451 3.863703489303589 1.250005125999451 L 13.86360359191895 1.250005125999451 C 14.51184368133545 1.250005125999451 15.12996101379395 1.41062343120575 15.6767692565918 1.713779211044312 L 9.903523445129395 7.487025260925293 C 9.572883605957031 7.817665100097656 9.133423805236816 7.999754905700684 8.666103363037109 7.999754905700684 Z" stroke="none"/>
        <path d="M 8.666103363037109 6.749754905700684 C 8.760493278503418 6.749754905700684 8.898453712463379 6.724315166473389 9.019633293151855 6.603135108947754 L 13.12276363372803 2.500005006790161 L 4.209449768066406 2.500005006790161 L 8.312573432922363 6.603135108947754 C 8.433753967285156 6.724315166473389 8.571713447570801 6.749754905700684 8.666103363037109 6.749754905700684 M 8.666103363037109 9.249754905700684 C 7.898403644561768 9.249754905700684 7.130703449249268 8.956805229187012 6.544803619384766 8.370904922485352 L 0.0004135555936954916 1.826505064964294 C 0.9173335433006287 0.7113950848579407 2.307493448257446 5.068664449936477e-06 3.863703489303589 5.068664449936477e-06 L 13.86360359191895 5.068664449936477e-06 C 15.31950378417969 5.068664449936477e-06 16.62969398498535 0.6220650672912598 17.5434627532959 1.614845037460327 L 10.78740310668945 8.370904922485352 C 10.20150375366211 8.956805229187012 9.433803558349609 9.249754905700684 8.666103363037109 9.249754905700684 Z" stroke="none" fill="#707070"/>
      </g>
    </g>
  </g>
</svg>
