<svg xmlns="http://www.w3.org/2000/svg" width="25" height="25" viewBox="0 0 25 25">
  <g id="FULL_NAME" data-name="FULL NAME" transform="translate(-975 -515)">
    <g id="Group_1946" data-name="Group 1946" transform="translate(975 515)">
      <rect id="Rectangle_294" data-name="Rectangle 294" width="25" height="25" fill="none" opacity="0.68"/>
    </g>
    <g id="Group_1948" data-name="Group 1948" transform="translate(979.167 519.167)">
      <path id="Path_151" data-name="Path 151" d="M-15353-2983.833s1.851-4.167,8.333-4.167,8.333,4.167,8.333,4.167" transform="translate(15352.999 2999.667)" fill="none" stroke="#707070" stroke-linecap="round" stroke-width="3"/>
      <g id="PASSRS_4x4" data-name="PASSRS 4x4" transform="translate(3.833 -0.167)">
        <g id="Path_150" data-name="Path 150" fill="#707070">
          <path d="M 4.166666507720947 6.833336353302002 C 2.696256399154663 6.833336353302002 1.499996542930603 5.637076377868652 1.499996542930603 4.166666507720947 C 1.499996542930603 2.696256399154663 2.696256399154663 1.499996542930603 4.166666507720947 1.499996542930603 C 5.637076377868652 1.499996542930603 6.833336353302002 2.696256399154663 6.833336353302002 4.166666507720947 C 6.833336353302002 5.637076377868652 5.637076377868652 6.833336353302002 4.166666507720947 6.833336353302002 Z" stroke="none"/>
          <path d="M 4.166666507720947 2.999996662139893 C 3.523366451263428 2.999996662139893 2.999996662139893 3.523366451263428 2.999996662139893 4.166666507720947 C 2.999996662139893 4.809966564178467 3.523366451263428 5.33333683013916 4.166666507720947 5.33333683013916 C 4.809966564178467 5.33333683013916 5.33333683013916 4.809966564178467 5.33333683013916 4.166666507720947 C 5.33333683013916 3.523366451263428 4.809966564178467 2.999996662139893 4.166666507720947 2.999996662139893 M 4.166666507720947 -3.814697265625e-06 C 6.467856407165527 -3.814697265625e-06 8.33333683013916 1.865476608276367 8.33333683013916 4.166666507720947 C 8.33333683013916 6.467856407165527 6.467856407165527 8.33333683013916 4.166666507720947 8.33333683013916 C 1.865476608276367 8.33333683013916 -3.814697265625e-06 6.467856407165527 -3.814697265625e-06 4.166666507720947 C -3.814697265625e-06 1.865476608276367 1.865476608276367 -3.814697265625e-06 4.166666507720947 -3.814697265625e-06 Z" stroke="none" fill="#707070"/>
        </g>
      </g>
    </g>
  </g>
</svg>
