<svg xmlns="http://www.w3.org/2000/svg" width="25" height="25" viewBox="0 0 25 25">
  <g id="STOLLER" transform="translate(-287 -92)">
    <g id="Group_1989" data-name="Group 1989" transform="translate(-270 -1147.364)">
      <g id="Subtraction_52" data-name="Subtraction 52" transform="translate(-14478.94 2613.029)" fill="#707070">
        <path d="M 15054.9384765625 -1354.03076171875 L 15045.9384765625 -1354.03076171875 C 15044.28515625 -1354.03076171875 15042.9404296875 -1355.3759765625 15042.9404296875 -1357.029541015625 L 15042.9404296875 -1368.331420898438 L 15056.6826171875 -1354.587158203125 C 15056.1796875 -1354.227661132813 15055.5751953125 -1354.03076171875 15054.9384765625 -1354.03076171875 Z" stroke="none"/>
        <path d="M 15054.8251953125 -1355.03076171875 L 15043.9404296875 -1365.916870117188 L 15043.9404296875 -1357.029541015625 C 15043.9404296875 -1355.927368164063 15044.8369140625 -1355.03076171875 15045.9384765625 -1355.03076171875 L 15054.8251953125 -1355.03076171875 M 15054.9384765625 -1353.03076171875 L 15045.9384765625 -1353.03076171875 C 15043.734375 -1353.03076171875 15041.9404296875 -1354.824584960938 15041.9404296875 -1357.029541015625 L 15041.9404296875 -1369.029418945313 C 15041.9404296875 -1369.527465820313 15042.03125 -1370.014282226563 15042.2099609375 -1370.476318359375 L 15058.1025390625 -1354.5810546875 C 15057.3369140625 -1353.595336914063 15056.18359375 -1353.03076171875 15054.9384765625 -1353.03076171875 Z" stroke="none" fill="#707070"/>
      </g>
      <g id="Ellipse_209" data-name="Ellipse 209" transform="translate(574 1257)" fill="#fff" stroke="#707070" stroke-width="2">
        <circle cx="3" cy="3" r="3" stroke="none"/>
        <circle cx="3" cy="3" r="2" fill="none"/>
      </g>
      <g id="Ellipse_210" data-name="Ellipse 210" transform="translate(565 1257)" fill="#fff" stroke="#707070" stroke-width="2">
        <circle cx="3" cy="3" r="3" stroke="none"/>
        <circle cx="3" cy="3" r="2" fill="none"/>
      </g>
      <path id="Path_174" data-name="Path 174" d="M-14475.8,2631s-3.07-4.2-4.2-2" transform="translate(15040 -1386)" fill="none" stroke="#707070" stroke-linecap="round" stroke-width="2"/>
    </g>
    <rect id="Rectangle_354" data-name="Rectangle 354" width="25" height="25" transform="translate(287 92)" fill="none"/>
  </g>
</svg>
