<svg xmlns="http://www.w3.org/2000/svg" width="25" height="25" viewBox="0 0 25 25">
    <g transform="translate(-260 -95)">
        <g transform="translate(264 98.984)">
            <path d="M16.837,2.121a1.782,1.782,0,0,0-.146-1.8A1.784,1.784,0,0,0,14.9.18a5.3,5.3,0,0,0-2.086,1.31L10.869,3.43,2.8,1.5a.353.353,0,0,0-.364.1L.886,3.151a.374.374,0,0,0-.109.328.406.406,0,0,0,.206.291L7.145,7.154,4,10.3,1.651,9.653a.25.25,0,0,0-.1-.012.377.377,0,0,0-.279.109L.11,10.926a.415.415,0,0,0-.109.3.362.362,0,0,0,.158.279L3.215,13.8l2.292,3.056a.437.437,0,0,0,.291.158h.024a.378.378,0,0,0,.279-.109l1.164-1.164a.37.37,0,0,0,.1-.376l-.643-2.353L9.862,9.871l3.384,6.162a.335.335,0,0,0,.255.194.267.267,0,0,0,.085.012.343.343,0,0,0,.23-.073L15.369,15a.368.368,0,0,0,.146-.4L13.574,6.16l1.953-1.953A5.3,5.3,0,0,0,16.837,2.121Z"
                  transform="translate(0)" fill="#707070"/>
        </g>
    </g>
</svg>