<svg xmlns="http://www.w3.org/2000/svg" width="20" height="20" viewBox="0 0 20 20">
    <g id="Group_2014" data-name="Group 2014" transform="translate(-625 -637)">
        <g id="CALENDAR_5_SMALL" data-name="CALENDAR 5 SMALL" transform="translate(625.5 637.5)">
            <path id="Path_176" data-name="Path 176" d="M6.5,3.9h7a2.946,2.946,0,0,1,3,3v7.6a2.946,2.946,0,0,1-3,3h-7a2.946,2.946,0,0,1-3-3V6.9A2.946,2.946,0,0,1,6.5,3.9Z" fill="#fff"/>
            <path id="Path_177" data-name="Path 177" d="M13.8,2.9a1.453,1.453,0,0,0-1.5-1.4,1.52,1.52,0,0,0-1.5,1.4H9.2A1.453,1.453,0,0,0,7.7,1.5,1.453,1.453,0,0,0,6.2,2.9a3.891,3.891,0,0,0-3.7,4v7.6a4.012,4.012,0,0,0,4,4h7a4.012,4.012,0,0,0,4-4V6.9A4.1,4.1,0,0,0,13.8,2.9Zm1.7,11.6a2.006,2.006,0,0,1-2,2h-7a2.006,2.006,0,0,1-2-2V6.9a2.133,2.133,0,0,1,1.7-2v.6A1.453,1.453,0,0,0,7.7,6.9,1.453,1.453,0,0,0,9.2,5.5V4.9h1.6v.6a1.5,1.5,0,0,0,3,0V4.9a1.96,1.96,0,0,1,1.7,2ZM12,11a1.621,1.621,0,0,1,.3,2.2,2.7,2.7,0,0,1-.8.7,2,2,0,0,1-1.3.2c-.4,0-.8-.1-1.2-.1a3,3,0,0,1-1-.4l.5-1a2.506,2.506,0,0,0,.7.4h.9a1.2,1.2,0,0,0,.8-.2.567.567,0,0,0,0-1,3.553,3.553,0,0,0-1-.2H8.5l.3-3.1h3.4v1H9.9l-.1,1.1h.5A2.68,2.68,0,0,1,12,11Z" fill="#707070"/>
        </g>
    </g>
</svg>
