<svg xmlns="http://www.w3.org/2000/svg" width="38" height="28" viewBox="0 0 38 28">
    <g transform="translate(-670 -317)">
        <g transform="translate(700 325) rotate(90)">
            <g transform="translate(0)">
                <g transform="translate(0 0)" fill="#fff">
                    <path d="M 9.91349983215332 22.55570030212402 L 2.999700307846069 22.55570030212402 C 1.89706015586853 22.55570030212402 1.000000238418579 21.65863990783691 1.000000238418579 20.55599975585938 L 1.000000238418579 5.507100105285645 C 1.000000238418579 4.404459953308105 1.89706015586853 3.507400035858154 2.999700307846069 3.507400035858154 L 3.697220087051392 3.507400035858154 L 5.695350170135498 3.507400035858154 L 4.49767017364502 1.908000111579895 L 4.498300075531006 0.9999001622200012 L 8.316900253295898 1.00000011920929 L 8.316800117492676 1.908900141716003 L 7.121140003204346 3.507780075073242 L 9.118189811706543 3.507400035858154 L 9.91349983215332 3.507400035858154 C 11.01613998413086 3.507400035858154 11.91320037841797 4.404459953308105 11.91320037841797 5.507100105285645 L 11.91320037841797 20.55599975585938 C 11.91320037841797 21.65863990783691 11.01613998413086 22.55570030212402 9.91349983215332 22.55570030212402 Z"
                          stroke="none"/>
                    <path d="M 9.91349983215332 21.55570030212402 C 10.46473979949951 21.55570030212402 10.91320037841797 21.10724067687988 10.91320037841797 20.55599975585938 L 10.91320037841797 5.507100105285645 C 10.91320037841797 4.955860137939453 10.46473979949951 4.507400035858154 9.91349983215332 4.507400035858154 L 9.118189811706543 4.507400035858154 L 5.125190258026123 4.507400035858154 L 3.697220087051392 4.507400035858154 L 2.999700307846069 4.507400035858154 C 2.448460102081299 4.507400035858154 2.000000238418579 4.955860137939453 2.000000238418579 5.507100105285645 L 2.000000238418579 20.55599975585938 C 2.000000238418579 21.10724067687988 2.448460102081299 21.55570030212402 2.999700307846069 21.55570030212402 L 9.91349983215332 21.55570030212402 M 6.408460140228271 2.791364908218384 L 7.000251293182373 2.000000238418579 L 5.815861701965332 2.000000238418579 L 6.408460140228271 2.791364908218384 M 9.91349983215332 23.55570030212402 L 2.999700307846069 23.55570030212402 C 1.342800140380859 23.55570030212402 1.892089898092308e-07 22.21290016174316 1.892089898092308e-07 20.55599975585938 L 1.892089898092308e-07 5.507100105285645 C 1.892089898092308e-07 3.850200176239014 1.342800140380859 2.507400035858154 2.999700307846069 2.507400035858154 L 3.697220087051392 2.507400035858154 C 3.57230019569397 2.340580224990845 3.498300075531006 2.133430242538452 3.498300075531006 1.908900141716003 L 3.498300075531006 0.9999001622200012 C 3.498300075531006 0.4473001658916473 3.946500301361084 1.510620109002048e-07 4.499100208282471 1.510620109002048e-07 L 8.316900253295898 1.510620109002048e-07 C 8.869500160217285 1.510620109002048e-07 9.316800117492676 0.4473001658916473 9.316800117492676 0.9999001622200012 L 9.316800117492676 1.908900141716003 C 9.316800117492676 2.133430242538452 9.242939949035645 2.340580224990845 9.118189811706543 2.507400035858154 L 9.91349983215332 2.507400035858154 C 11.57040023803711 2.507400035858154 12.91320037841797 3.850200176239014 12.91320037841797 5.507100105285645 L 12.91320037841797 20.55599975585938 C 12.91320037841797 22.21290016174316 11.57040023803711 23.55570030212402 9.91349983215332 23.55570030212402 Z"
                          stroke="none" fill="#f8f8f8"/>
                </g>
                <rect width="9.685" height="11.299" transform="translate(1.614 10.419)" fill="#ffd05e"/>
                <g fill="none">
                    <path d="M3,23.556a3,3,0,0,1-3-3V5.507a3,3,0,0,1,3-3h.7a1,1,0,0,1-.2-.6V1a1,1,0,0,1,1-1H8.317a1,1,0,0,1,1,1v.909a1,1,0,0,1-.2.6h.8a3,3,0,0,1,3,3V20.556a3,3,0,0,1-3,3Z"
                          stroke="none"/>
                    <path d="M 9.91349983215332 21.55570030212402 C 10.46473979949951 21.55570030212402 10.91320037841797 21.10724067687988 10.91320037841797 20.55599975585938 L 10.91320037841797 5.507100105285645 C 10.91320037841797 4.955860137939453 10.46473979949951 4.507400035858154 9.91349983215332 4.507400035858154 L 9.118189811706543 4.507400035858154 L 5.125190258026123 4.507400035858154 L 3.697220087051392 4.507400035858154 L 2.999700307846069 4.507400035858154 C 2.448460102081299 4.507400035858154 2.000000238418579 4.955860137939453 2.000000238418579 5.507100105285645 L 2.000000238418579 20.55599975585938 C 2.000000238418579 21.10724067687988 2.448460102081299 21.55570030212402 2.999700307846069 21.55570030212402 L 9.91349983215332 21.55570030212402 M 6.408460140228271 2.791364908218384 L 7.000251293182373 2.000000238418579 L 5.815861701965332 2.000000238418579 L 6.408460140228271 2.791364908218384 M 9.91349983215332 23.55570030212402 L 2.999700307846069 23.55570030212402 C 1.342800140380859 23.55570030212402 1.892089898092308e-07 22.21290016174316 1.892089898092308e-07 20.55599975585938 L 1.892089898092308e-07 5.507100105285645 C 1.892089898092308e-07 3.850200176239014 1.342800140380859 2.507400035858154 2.999700307846069 2.507400035858154 L 3.697220087051392 2.507400035858154 C 3.57230019569397 2.340580224990845 3.498300075531006 2.133430242538452 3.498300075531006 1.908900141716003 L 3.498300075531006 0.9999001622200012 C 3.498300075531006 0.4473001658916473 3.946500301361084 1.510620109002048e-07 4.499100208282471 1.510620109002048e-07 L 8.316900253295898 1.510620109002048e-07 C 8.869500160217285 1.510620109002048e-07 9.316800117492676 0.4473001658916473 9.316800117492676 0.9999001622200012 L 9.316800117492676 1.908900141716003 C 9.316800117492676 2.133430242538452 9.242939949035645 2.340580224990845 9.118189811706543 2.507400035858154 L 9.91349983215332 2.507400035858154 C 11.57040023803711 2.507400035858154 12.91320037841797 3.850200176239014 12.91320037841797 5.507100105285645 L 12.91320037841797 20.55599975585938 C 12.91320037841797 22.21290016174316 11.57040023803711 23.55570030212402 9.91349983215332 23.55570030212402 Z"
                          stroke="none" fill="#f8f8f8"/>
                </g>
            </g>
        </g>
        <rect width="38" height="28" transform="translate(670 317)" fill="none"/>
    </g>
</svg>