<svg xmlns="http://www.w3.org/2000/svg" width="38" height="28" viewBox="0 0 38 28">
    <g transform="translate(-719 -317)">
        <g transform="translate(730.965 326.361)" fill="#97e3e5">
            <path d="M 7.017483711242676 12.639404296875 C 3.69943380355835 12.639404296875 1.000003695487976 9.939973831176758 1.000003695487976 6.621923923492432 C 1.000003695487976 5.140324115753174 1.979083657264709 2.454964160919189 3.555153608322144 -0.3862058818340302 C 5.116957664489746 -3.201658487319946 6.475306510925293 -4.741374015808105 7.003978729248047 -5.095222949981689 C 7.531343460083008 -4.722951412200928 8.886050224304199 -3.16327166557312 10.45468330383301 -0.3584158718585968 C 12.04625415802002 2.487464189529419 13.03496360778809 5.162164211273193 13.03496360778809 6.621923923492432 C 13.03496360778809 9.939973831176758 10.33553409576416 12.639404296875 7.017483711242676 12.639404296875 Z"
                  stroke="none"/>
            <path d="M 6.994303703308105 -3.712565898895264 C 6.370272159576416 -3.007645130157471 5.377241134643555 -1.657416820526123 4.260563850402832 0.4075231552124023 C 2.887323379516602 2.946893215179443 2.000003814697266 5.38619327545166 2.000003814697266 6.621922969818115 C 2.000003814697266 9.388572692871094 4.250833511352539 11.63940334320068 7.017483711242676 11.63940334320068 C 9.784133911132813 11.63940334320068 12.03496360778809 9.388572692871094 12.03496360778809 6.621922969818115 C 12.03496360778809 5.40306282043457 11.1350040435791 2.968533039093018 9.742193222045898 0.4196429252624512 C 8.658531188964844 -1.563498973846436 7.640944004058838 -2.968913555145264 6.994303703308105 -3.712565898895264 M 7.017483711242676 -6.148437023162842 C 8.594433784484863 -6.148437023162842 14.03496360778809 2.746273040771484 14.03496360778809 6.621922969818115 C 14.03496360778809 10.49757289886475 10.89313316345215 13.63940334320068 7.017483711242676 13.63940334320068 C 3.141833305358887 13.63940334320068 3.814697265625e-06 10.49757289886475 3.814697265625e-06 6.621922969818115 C 3.814697265625e-06 2.746273040771484 5.32707405090332 -6.148437023162842 7.017483711242676 -6.148437023162842 Z"
                  stroke="none" fill="#f8f8f8"/>
        </g>
        <rect width="38" height="28" transform="translate(719 317)" fill="none"/>
    </g>
</svg>