<svg xmlns="http://www.w3.org/2000/svg" width="30" height="30" viewBox="0 0 30 30">
  <g id="BAHT_ACTIVE" data-name="BAHT ACTIVE" transform="translate(-945.801 -524.5)">
    <g id="Group_2022" data-name="Group 2022">
      <g id="Group_2021" data-name="Group 2021">
        <path id="Path_193" data-name="Path 193" d="M971.9,539.4a10.968,10.968,0,1,1-3.212-7.788A11,11,0,0,1,971.9,539.4Zm-11.3,9.7a4.467,4.467,0,0,0,2.8-.3,9.741,9.741,0,0,0,7.1-11.6,9.85,9.85,0,0,0-17.2-4.2c-3.1,3.5-2.9,9.7.3,12.7a5.194,5.194,0,0,0,1.9,1.7,5.078,5.078,0,0,0,1.8.9,9.025,9.025,0,0,0,3.3.8Z" fill="#fed166"/>
        <path id="Path_195" data-name="Path 195" d="M953.6,545.8V535.2c0-1.6.2-1.7,1.7-1.8.8,0,1.7.3,2.3-.7a.713.713,0,0,1,1.1.1c.3.7,1,.8,1.6,1a4.629,4.629,0,0,1,1.7,7.1c-.2.3-.7.5-.1,1,2.3,2.1,2.7,3.9,1.5,6.8a4.467,4.467,0,0,1-2.8.3,3.154,3.154,0,0,0,1.6-3.4,3.231,3.231,0,0,0-2.2-2.7c-.6-.2-1-.2-1,.7.1,1.8,0,3.5,0,5.3a3.854,3.854,0,0,1-1.8-.6v-4.8c0-.7-.2-.9-.9-.9-.6,0-.9.1-.9.8v3.9a3.2,3.2,0,0,1-1.8-1.5Zm3.7-7.6V536c0-.7-.4-.7-.9-.7s-.9,0-.9.7v4c0,.7.2,1,1,1s.9-.4.8-1a10.815,10.815,0,0,1,0-1.8Zm1.8,0v2.1c0,.6.2.6.7.4a2.952,2.952,0,0,0,.3-4.8.829.829,0,0,0-.8-.3c-.4.1-.2.5-.2.8Z" fill="#747474"/>
      </g>
    </g>
  </g>
</svg>
