<svg xmlns="http://www.w3.org/2000/svg" width="30" height="30" viewBox="0 0 30 30">
  <g id="BAHT" transform="translate(-945.801 -525.9)">
    <g id="Group_2024" data-name="Group 2024">
      <g id="Group_2023" data-name="Group 2023">
        <path id="Path_200" data-name="Path 200" d="M960.8,529.9a11.119,11.119,0,0,1,11,11.1,11,11,0,1,1-11-11.1Zm2.5,20.5a9.853,9.853,0,0,0,7.4-9.6c-.1-4.9-3.4-9.3-9.5-9.7a9.827,9.827,0,0,0-9.7,6.8c-1.2,3.6.2,8.1,2.1,9.2V536.7c0-1.6.1-1.6,1.7-1.7.8,0,1.7.3,2.3-.7a.706.706,0,0,1,1.2.1,1.779,1.779,0,0,0,1.1.8,4.484,4.484,0,0,1,2.5,6.5c-.6,1.1-.7,1.6.3,2.5C964.3,546,964.3,548.1,963.3,550.4Zm-4.4-2.9v2c0,1.1.7,1.6,1.7,1a3.314,3.314,0,0,0-1-6c-.6-.1-.8.1-.8.7a8.881,8.881,0,0,1,.1,2.3Zm-1.7-7.8v-2.1c0-.6-.2-.8-.8-.8s-1,0-.9.8v3.9c0,.7.1,1,.9,1s.9-.4.8-1a10.8,10.8,0,0,1,0-1.8Zm0,7.6v-2.1c0-.7-.2-.9-.9-.9s-.9.2-.9.9c0,1,.1,2,0,3s.5,1.3,1.3,1.6c.4.2.5,0,.5-.4q0-1.05,0-2.1Zm1.7-7.6v2.1c0,.4.1.6.6.5a3.384,3.384,0,0,0,1.6-2.5,2.946,2.946,0,0,0-1.5-2.5c-.5-.2-.7-.1-.7.4,0,.6,0,1.3,0,2Z" fill="#b9b9b9"/>
      </g>
    </g>
  </g>
</svg>
