<svg xmlns="http://www.w3.org/2000/svg" width="30" height="30" viewBox="0 0 30 30">
  <g id="Group_2020" data-name="Group 2020" transform="translate(-640 -567)">
    <g id="Слой_2" data-name="Слой 2" transform="translate(644 569)">
      <g id="Слой_1" data-name="Слой 1">
        <g id="Group_2005" data-name="Group 2005">
          <g id="CALENDAR_5" data-name="CALENDAR 5">
            <g id="Group_1109" data-name="Group 1109">
              <g id="Rectangle_50" data-name="Rectangle 50">
                <rect id="Rectangle_385" data-name="Rectangle 385" width="20" height="20.98" rx="3" transform="translate(1.25 2.88)" fill="#fff"/>
                <path id="Path_189" data-name="Path 189" d="M18.25,25.12h-14A4.26,4.26,0,0,1,0,20.87v-15A4.26,4.26,0,0,1,4.25,1.63h14A4.26,4.26,0,0,1,22.5,5.88v15a4.26,4.26,0,0,1-4.25,4.24Zm-14-21A1.76,1.76,0,0,0,2.5,5.88v15a1.76,1.76,0,0,0,1.75,1.75h14A1.76,1.76,0,0,0,20,20.87v-15a1.76,1.76,0,0,0-1.75-1.75Z" fill="#707070"/>
              </g>
              <g id="Line_20" data-name="Line 20">
                <path id="Path_190" data-name="Path 190" d="M7.75,6.77a1.5,1.5,0,0,1-1.5-1.5V1.5a1.5,1.5,0,1,1,3,0V5.27a1.5,1.5,0,0,1-1.5,1.5Z" fill="#707070"/>
              </g>
              <g id="Path_7" data-name="Path 7">
                <path id="Path_191" data-name="Path 191" d="M14.75,6.77a1.5,1.5,0,0,1-1.5-1.5V1.5a1.5,1.5,0,1,1,3,0V5.27a1.5,1.5,0,0,1-1.5,1.5Z" fill="#707070"/>
              </g>
              <g id="_5" data-name=" 5">
                <g id="Group_2019" data-name="Group 2019">
                  <path id="Path_192" data-name="Path 192" d="M13.72,13.71a2.14,2.14,0,0,1,.78,1.74,2.46,2.46,0,0,1-.35,1.28,2.53,2.53,0,0,1-1.08.92A4.07,4.07,0,0,1,11.3,18a5.72,5.72,0,0,1-1.6-.22,3.94,3.94,0,0,1-1.34-.61l.7-1.36a3.37,3.37,0,0,0,1,.51,3.86,3.86,0,0,0,1.17.18,1.91,1.91,0,0,0,1.06-.26.84.84,0,0,0,.38-.74.83.83,0,0,0-.4-.75,2.76,2.76,0,0,0-1.39-.25h-2l.4-4.33H14V11.6H10.81l-.12,1.46h.63A3.64,3.64,0,0,1,13.72,13.71Z" fill="#707070"/>
                </g>
              </g>
            </g>
          </g>
        </g>
      </g>
    </g>
    <rect id="Rectangle_386" data-name="Rectangle 386" width="30" height="30" transform="translate(640 567)" fill="none"/>
  </g>
</svg>
