<svg id="CALENDAR_1" data-name="CALENDAR 1" xmlns="http://www.w3.org/2000/svg" width="30" height="30" viewBox="0 0 30 30">
  <g id="Group_2018" data-name="Group 2018">
    <g id="Слой_1-2">
      <g id="Group_2005">
        <g id="CALENDAR_1-2" data-name="CALENDAR_1">
          <g id="Group_1109-2">
            <g id="Rectangle_50-2">
              <path id="Path_184" data-name="Path 184" d="M7.8,5.4H22.1a3.031,3.031,0,0,1,3.1,3V23.3a3.1,3.1,0,0,1-3.1,3H7.8a3.031,3.031,0,0,1-3.1-3V8.4A3.163,3.163,0,0,1,7.8,5.4Z" fill="#fff"/>
              <path id="Path_185" data-name="Path 185" d="M22.2,27.5H7.8a4.247,4.247,0,0,1-4.3-4.2V8.3A4.313,4.313,0,0,1,7.8,4.1H22.1a4.247,4.247,0,0,1,4.3,4.2V23.2A4.185,4.185,0,0,1,22.2,27.5ZM7.8,6.6A1.793,1.793,0,0,0,6,8.4V23.3A1.71,1.71,0,0,0,7.8,25H22.1a1.793,1.793,0,0,0,1.8-1.8V8.3a1.71,1.71,0,0,0-1.8-1.7H7.8Z" fill="#707070"/>
            </g>
            <g id="Line_20-2">
              <path id="Path_186" data-name="Path 186" d="M11.4,9.2A1.538,1.538,0,0,1,9.9,7.7V4a1.538,1.538,0,0,1,1.5-1.5A1.63,1.63,0,0,1,13,4V7.8A1.483,1.483,0,0,1,11.4,9.2Z" fill="#707070"/>
            </g>
            <g id="Path_7-2">
              <path id="Path_187" data-name="Path 187" d="M18.6,9.2a1.538,1.538,0,0,1-1.5-1.5V4a1.5,1.5,0,0,1,3,0V7.8A1.453,1.453,0,0,1,18.6,9.2Z" fill="#707070"/>
            </g>
            <g id="_1">
              <g id="Group_2017" data-name="Group 2017">
                <path id="Path_188" data-name="Path 188" d="M16.4,12.6v7.7H14.6V14H13V12.6Z" fill="#707070"/>
              </g>
            </g>
          </g>
        </g>
      </g>
    </g>
  </g>
</svg>
