<svg id="Слой_2" data-name="Слой 2" xmlns="http://www.w3.org/2000/svg" width="30" height="30" viewBox="0 0 30 30">
  <g id="Слой_1" data-name="Слой 1">
    <path id="Path_332" data-name="Path 332" d="M7.82,21.84A9,9,0,0,1,5.32,17,9.87,9.87,0,0,1,7.59,8.49a1,1,0,0,1,.19-.17L9,9.51l2.26,2.28A30.85,30.85,0,0,0,13.46,14c.33.35.87.69.91,1.08s-.63.66-.88,1.08c-.81.72-1.56,1.5-2.29,2.29L9,20.67Zm2.78-4.25c-.2-.63-.32-1.08-.49-1.51a.62.62,0,0,1,.27-.91,15.33,15.33,0,0,0,1.28-.95H9.89a.43.43,0,0,1-.5-.36c-.14-.51-.32-1-.54-1.68-.2.63-.37,1.08-.49,1.54s-.27.53-.67.5-1,0-1.67,0c.59.44,1,.76,1.45,1.07.19.14.3.28.21.53-.19.53-.37,1.07-.57,1.65a4.11,4.11,0,0,0,1.29-.84c.32-.25.55-.3.88,0S10.05,17.19,10.6,17.59Z" fill="#1349ae"/>
    <path id="Path_333" data-name="Path 333" d="M7.82,21.84,9,20.67H23.21A7.12,7.12,0,0,1,21,23H9.1a4.46,4.46,0,0,1-1.28-1.16Z" fill="#cc0501"/>
    <path id="Path_334" data-name="Path 334" d="M11.25,11.79,9,9.51H23.27a7,7,0,0,1,1.13,2.28H18.22C15.88,11.76,13.56,11.78,11.25,11.79Z" fill="#fcce01"/>
    <path id="Path_335" data-name="Path 335" d="M23.25,9.46,17,9.48H9L7.78,8.32A4.06,4.06,0,0,1,9,7.23H21.18a7.73,7.73,0,0,1,2.07,2.23Z" fill="#cc0201"/>
    <path id="Path_336" data-name="Path 336" d="M23.21,20.7H9.05l2.18-2.21H24.34A6.06,6.06,0,0,1,23.21,20.7Z" fill="#fdd401"/>
    <path id="Path_337" data-name="Path 337" d="M24.34,18.5H11.24c.73-.79,1.48-1.57,2.29-2.29H24.92A6.15,6.15,0,0,1,24.34,18.5Z" fill="#cc0501"/>
    <path id="Path_338" data-name="Path 338" d="M11.25,11.79H24.43a5.58,5.58,0,0,1,.5,2.24H23.67L13.46,14a30.851,30.851,0,0,1-2.21-2.21Z" fill="#cc0201"/>
    <path id="Path_339" data-name="Path 339" d="M13.46,14H24.88a4.85,4.85,0,0,1,0,2.21H13.49c.25-.42.93-.66.88-1.08S13.79,14.36,13.46,14Z" fill="#fdd401"/>
    <path id="Path_340" data-name="Path 340" d="M21.18,7.23H9a9.49,9.49,0,0,1,8.51-1.88,8.82,8.82,0,0,1,3.67,1.88Z" fill="#fdd401"/>
    <path id="Path_341" data-name="Path 341" d="M9.1,23H21a9.25,9.25,0,0,1-6.91,2A8.78,8.78,0,0,1,9.1,23Z" fill="#fdd401"/>
    <path id="Path_342" data-name="Path 342" d="M10.6,17.59a9.957,9.957,0,0,1-1.32-1c-.32-.34-.56-.24-.88,0a4.11,4.11,0,0,1-1.29.84c.2-.58.38-1.12.57-1.65.09-.25,0-.39-.21-.53A14.158,14.158,0,0,1,6,14.22H7.67c.49,0,.57-.13.67-.5s.29-.91.49-1.54c.22.68.4,1.17.54,1.68a.43.43,0,0,0,.5.36h1.77a15.33,15.33,0,0,1-1.28.95.62.62,0,0,0-.27.91C10.28,16.51,10.4,17,10.6,17.59Z" fill="#fefefe"/>
  </g>
</svg>
