<svg xmlns="http://www.w3.org/2000/svg" width="30" height="30" viewBox="0 0 30 30">
  <g id="DOLLAR" transform="translate(-945.551 -524.66)">
    <g id="Group_2026" data-name="Group 2026" transform="translate(945.55 524.66)">
      <path id="Path_211" data-name="Path 211" d="M960.615,550.62a11.08,11.08,0,1,1,11.1-10.956,11.08,11.08,0,0,1-11.1,10.956Zm.841-1.335a4.063,4.063,0,0,0,1.335-.069,9.909,9.909,0,1,0-11.906-8,9.574,9.574,0,0,0,2.047,4.549c.277.356.583.732,1.009.119.376-.524.742-.237,1.107.049a5.22,5.22,0,0,0,3.985,1.187,1.748,1.748,0,0,0,1.711-1.434,1.632,1.632,0,0,0-1.127-1.9c-1.009-.435-2.017-.86-3.006-1.315-1.414-.653-2.779-1.4-3.3-3-.791-2.4.405-4.628,3.065-5.587.752-.267.969-.623.87-1.325a4.917,4.917,0,0,1,0-.662c-.03-.841.544-.821,1.117-.791.554.02,1.355-.178,1.256.752-.148,1.276.257,2,1.582,2.106a1.762,1.762,0,0,1,.405.168c2.037.85,2.086,1.058,1.048,2.907-.356.643-.663.643-1.177.227a4.6,4.6,0,0,0-3.293-.939c-.979.059-1.75.376-2.017,1.365-.287,1.058.425,1.651,1.246,2.047,1.019.485,2.1.87,3.135,1.3,2.2.9,3.273,2.3,3.283,4.193a4.937,4.937,0,0,1-2.373,4.054Z" transform="translate(-945.55 -524.66)" fill="#b9b9b9"/>
    </g>
  </g>
</svg>
