<svg xmlns="http://www.w3.org/2000/svg" width="30" height="30" viewBox="0 0 30 30">
  <g id="DOLLAR_ACTIVE" data-name="DOLLAR ACTIVE" transform="translate(-945.539 -524.65)">
    <g id="Group_2025" data-name="Group 2025" transform="translate(945.54 524.65)">
      <path id="Path_207" data-name="Path 207" d="M949.59,539.466a11.055,11.055,0,1,1,10.931,11.144A11.061,11.061,0,0,1,949.59,539.466Zm4.033,6.833a6.524,6.524,0,0,0,3.746,2.581,6.021,6.021,0,0,0,4.072.445,11.453,11.453,0,0,0,1.3-.109,9.9,9.9,0,0,0-4.428-19.3,9.749,9.749,0,0,0-7.413,11.312,7.468,7.468,0,0,0,2.718,5.073Z" transform="translate(-945.54 -524.65)" fill="#fdd165"/>
      <path id="Path_209" data-name="Path 209" d="M953.67,546.5c.44-.83.92-.83,1.64-.24a4.756,4.756,0,0,0,3.84,1.07,1.833,1.833,0,0,0,1.74-1.46,1.678,1.678,0,0,0-1.13-1.93c-1.37-.64-2.77-1.22-4.12-1.9a4.062,4.062,0,0,1-2.49-4.2,4.26,4.26,0,0,1,3.11-3.8c.95-.33,1.21-.79,1.08-1.66-.14-.96.24-1.27,1.22-1.28,1.04-.01,1.32.42,1.19,1.33-.13.88.12,1.39,1.12,1.43a3.537,3.537,0,0,1,1.23.48c1.68.8,1.83,1.79.49,3.13-.4.4-.66.08-.95-.13a4.912,4.912,0,0,0-3.33-.98c-1,.09-1.85.4-2.1,1.47-.25,1.09.51,1.64,1.34,2.03,1.03.49,2.12.87,3.17,1.33,2.48,1.08,3.55,2.68,3.25,4.82a5.368,5.368,0,0,1-2.39,3.54,6.094,6.094,0,0,1-4.12-.45,6.541,6.541,0,0,1-3.79-2.6Z" transform="translate(-945.642 -524.789)" fill="#737373"/>
    </g>
  </g>
</svg>
