<svg id="Слой_2" data-name="Слой 2" xmlns="http://www.w3.org/2000/svg" width="30" height="30" viewBox="0 0 30 30">
  <g id="Слой_1" data-name="Слой 1">
    <path id="Path_194" data-name="Path 194" d="M24.85,13.73a5.87,5.87,0,0,1,0,2.67H16.93c-.45,0-.57.11-.57.57v8a5.79,5.79,0,0,1-2.65,0q0-3.99,0-8c0-.45-.12-.57-.57-.56H5.22a5.87,5.87,0,0,1,0-2.67h7.91c.45,0,.57-.12.57-.57v-8a5.79,5.79,0,0,1,2.65,0c0,2.66,0,5.32,0,8,0,.45.11.58.57.58C19.58,13.72,22.21,13.73,24.85,13.73Z" fill="#d8072d"/>
    <path id="Path_195" data-name="Path 195" d="M5.27,16.4h7.92c.45,0,.57.11.57.56v8a2.92,2.92,0,0,1-1.3-.24V19.6L9.1,22.88a.23.23,0,0,1-.25-.26C9.91,21.54,11,20.43,12,19.38a1.57,1.57,0,0,0,.33-1.7L8.07,22.1c-.31-.29-.76-.48-.75-1l3.25-3.37H5.51a2.94,2.94,0,0,1-.24-1.33Z" fill="#eae8eb"/>
    <path id="Path_196" data-name="Path 196" d="M16.39,24.94v-8c0-.46.12-.58.57-.57h7.92a3.08,3.08,0,0,1-.24,1.31H19.79l3.15,3.39a.4.4,0,0,1-.28.37c-1.09-1.09-2.2-2.16-3.25-3.29a1.39,1.39,0,0,0-1.77-.27l4.29,4.14a1,1,0,0,1-.9.83L17.69,19.6v5.1a2.92,2.92,0,0,1-1.3.24Z" fill="#eaebed"/>
    <path id="Path_197" data-name="Path 197" d="M13.74,5.19v8c0,.45-.12.57-.57.57H5.26a2.8,2.8,0,0,1,.23-1.31h5.06L7.32,9.05a.22.22,0,0,1,.25-.25c1.08,1.06,2.18,2.1,3.21,3.2a1.5,1.5,0,0,0,1.55.4l.16-.2L8.19,8.08a1,1,0,0,1,.91-.83l3.34,3.28V5.43a2.92,2.92,0,0,1,1.3-.24Z" fill="#eaebed"/>
    <path id="Path_198" data-name="Path 198" d="M24.85,13.73H16.94c-.46,0-.57-.13-.57-.58v-8a2.92,2.92,0,0,1,1.3.24V10.5L21,7.25a.23.23,0,0,1,.25.26c-1.06,1.08-2.09,2.2-3.19,3.24a1.52,1.52,0,0,0-.38,1.56l.19.16L22,8.14a1,1,0,0,1,.81.91l-3.25,3.37h5.06a2.8,2.8,0,0,1,.23,1.31Z" fill="#eaebed"/>
    <path id="Path_199" data-name="Path 199" d="M24.62,12.42H19.56l3.25-3.37c.22,0,.29.14.39.27a9.39,9.39,0,0,1,1.42,3.1Z" fill="#0253b4"/>
    <path id="Path_200" data-name="Path 200" d="M22.94,21.1l-3.15-3.39h4.83a8.25,8.25,0,0,1-1.68,3.39Z" fill="#0253b4"/>
    <path id="Path_201" data-name="Path 201" d="M9.1,22.88l3.34-3.28v5.1a9.07,9.07,0,0,1-3.07-1.43C9.23,23.17,9.07,23.1,9.1,22.88Z" fill="#0253b4"/>
    <path id="Path_202" data-name="Path 202" d="M17.69,24.7V19.6L21,22.88c0,.22-.13.29-.27.39a8.88,8.88,0,0,1-3.04,1.43Z" fill="#0253b4"/>
    <path id="Path_203" data-name="Path 203" d="M12.44,5.43v5.1L9.1,7.25c0-.25.18-.32.33-.42a8.82,8.82,0,0,1,3.01-1.4Z" fill="#0253b4"/>
    <path id="Path_204" data-name="Path 204" d="M21,7.25l-3.34,3.29V5.43a9.07,9.07,0,0,1,3.07,1.43C20.89,7,21.06,7,21,7.25Z" fill="#0253b4"/>
    <path id="Path_205" data-name="Path 205" d="M7.32,9.05l3.25,3.37H5.51a9.13,9.13,0,0,1,1.39-3C7,9.23,7.07,9,7.32,9.05Z" fill="#0253b4"/>
    <path id="Path_206" data-name="Path 206" d="M5.51,17.71h5.06L7.32,21.08c-.22,0-.29-.14-.39-.27A9.39,9.39,0,0,1,5.51,17.71Z" fill="#0253b4"/>
    <path id="Path_207" data-name="Path 207" d="M21.93,22.05l-4.29-4.14a1.39,1.39,0,0,1,1.77.27c1.05,1.13,2.16,2.2,3.25,3.29C22.45,21.7,22.38,22.11,21.93,22.05Z" fill="#d90f34"/>
    <path id="Path_208" data-name="Path 208" d="M22,8.14l-4.1,4.33-.19-.16a1.52,1.52,0,0,1,.38-1.56c1.1-1,2.13-2.16,3.19-3.24C21.75,7.45,21.94,7.71,22,8.14Z" fill="#d90f34"/>
    <path id="Path_209" data-name="Path 209" d="M8.19,8.08l4.3,4.13-.16.2a1.5,1.5,0,0,1-1.55-.4c-1-1.11-2.13-2.15-3.21-3.21C7.53,8.33,7.77,8.13,8.19,8.08Z" fill="#d90f34"/>
    <path id="Path_210" data-name="Path 210" d="M8.07,22.1l4.3-4.42a1.57,1.57,0,0,1-.33,1.7C11,20.43,9.91,21.54,8.85,22.62,8.41,22.73,8.29,22.34,8.07,22.1Z" fill="#d8072d"/>
  </g>
</svg>
