<svg xmlns="http://www.w3.org/2000/svg" width="30" height="30" viewBox="0 0 30 30">
  <g id="EURO_ACTIVE" data-name="EURO ACTIVE" transform="translate(-945.539 -524.65)">
    <g id="Group_2027" data-name="Group 2027" transform="translate(945.54 524.65)">
      <path id="Path_214" data-name="Path 214" d="M949.59,539.476a11.055,11.055,0,1,1,10.941,11.134A11.061,11.061,0,0,1,949.59,539.476Zm1.265.079a7.409,7.409,0,0,0,1.186,4.855,8.768,8.768,0,0,0,6.385,4.667c1.512.712,2.995.326,4.547.039a9.765,9.765,0,0,0,7.334-11.688,9.953,9.953,0,0,0-10.783-7.733,9.772,9.772,0,0,0-8.668,9.859Z" transform="translate(-945.54 -524.65)" fill="#fdd165"/>
      <path id="Path_216" data-name="Path 216" d="M950.87,539.68c.6.1.9-.13,1.14-.73a9.422,9.422,0,0,1,10.6-5.59c.83.17,1.17.53.88,1.37a3.225,3.225,0,0,0-.16.53c-.15,1.03-.52,1.46-1.74,1.23a5.4,5.4,0,0,0-5.6,2.14c-.2.26-.53.55-.4.87.15.37.59.19.9.19,1.56.02,3.11,0,4.67.02.47.01,1.21-.2,1.04.68-.14.69.24,1.79-1.1,1.79-1.78-.01-3.56,0-5.33,0-.46,0-.96-.12-.98.66-.02.85.5.73,1.02.73,1.56,0,3.11-.01,4.67,0,.45,0,1.02-.14,1.08.6.07.92-.46,1.83-1.1,1.84-1.41.02-2.82.03-4.22,0-.74-.02-.7.24-.42.76a8.066,8.066,0,0,0,2.73,2.53,8.908,8.908,0,0,1-6.46-4.72,7.346,7.346,0,0,1-1.22-4.9Z" transform="translate(-945.619 -524.801)" fill="#737272"/>
    </g>
  </g>
</svg>
