<svg id="Слой_2" data-name="Слой 2" xmlns="http://www.w3.org/2000/svg" width="30" height="30" viewBox="0 0 30 30">
  <g id="Слой_1" data-name="Слой 1">
    <path id="Path_230" data-name="Path 230" d="M18.38,24.17a6.16,6.16,0,0,1-2.61.67,9.9,9.9,0,0,1-4-.46.336.336,0,0,1-.31-.2,2.774,2.774,0,0,1,0-.71V5.67a9.52,9.52,0,0,1,6.85-.07s.05.07.07.1V22.83C18.41,23.28,18.39,23.73,18.38,24.17Z" fill="#efefef"/>
    <path id="Path_231" data-name="Path 231" d="M18.38,24.17V5.7a4.36,4.36,0,0,1,1.86.83,9.52,9.52,0,0,1,4.66,9.14A9.57,9.57,0,0,1,19,24C18.8,24.1,18.62,24.24,18.38,24.17Z" fill="#d8042a"/>
    <path id="Path_232" data-name="Path 232" d="M11.46,5.67V24.18a4.26,4.26,0,0,1-1.85-.83A9.51,9.51,0,0,1,5,14.25a9.58,9.58,0,0,1,6-8.42,3.86,3.86,0,0,1,.46-.16Z" fill="#0454b4"/>
  </g>
</svg>
