<svg id="Слой_2" data-name="Слой 2" xmlns="http://www.w3.org/2000/svg" width="30" height="30" viewBox="0 0 30 30">
  <g id="Слой_1" data-name="Слой 1">
    <path id="Path_242" data-name="Path 242" d="M5.68,18.5a9.25,9.25,0,0,1,0-6.88H24.31a9.18,9.18,0,0,1,0,6.89Z" fill="#d70027"/>
    <path id="Path_243" data-name="Path 243" d="M24.31,11.62H5.69a9.53,9.53,0,0,1,6.78-6.14,9.93,9.93,0,0,1,11.78,5.89,1.83,1.83,0,0,1,.06.25Z" fill="#040102"/>
    <path id="Path_244" data-name="Path 244" d="M5.68,18.5H24.32a9.53,9.53,0,0,1-6.91,6.18A9.9,9.9,0,0,1,5.75,18.75a2.33,2.33,0,0,1-.07-.25Z" fill="#fdd644"/>
  </g>
</svg>
