<svg id="Слой_2" data-name="Слой 2" xmlns="http://www.w3.org/2000/svg" width="30" height="30" viewBox="0 0 30 30">
  <g id="Слой_1" data-name="Слой 1">
    <path id="Path_328" data-name="Path 328" d="M18.43,24.3a6.23,6.23,0,0,1-2.6.67,10,10,0,0,1-3.95-.47.39.39,0,0,1-.31-.2V5.8a9.44,9.44,0,0,1,6.82-.07.7.7,0,0,1,.07.1V23C18.46,23.41,18.44,23.85,18.43,24.3Z" fill="#efefef"/>
    <path id="Path_329" data-name="Path 329" d="M18.43,24.3V5.83a4.3,4.3,0,0,1,1.85.82,9.54,9.54,0,0,1,4.64,9.15A9.54,9.54,0,0,1,19,24.13.75.75,0,0,1,18.43,24.3Z" fill="#d8042a"/>
    <path id="Path_330" data-name="Path 330" d="M11.54,5.8V24.3a4.17,4.17,0,0,1-1.9-.86,9.52,9.52,0,0,1-4.59-9.06A9.59,9.59,0,0,1,11,6a4.88,4.88,0,0,1,.54-.2Z" fill="#6fa647"/>
  </g>
</svg>
