<svg id="Слой_2" data-name="Слой 2" xmlns="http://www.w3.org/2000/svg" width="30" height="30" viewBox="0 0 30 30">
  <g id="Слой_1" data-name="Слой 1">
    <path id="Path_316" data-name="Path 316" d="M25,15A10,10,0,1,1,15,5,10,10,0,0,1,25,15Zm-6.72,2.9c.46-.17.91-.61,1.35,0,.19-.36-.13-.57,0-.83s.48-.27.56-.58c-.78-.09-.78-.09-1.21-.95-.1.73-.43,1.12-1.23.93a1,1,0,0,1,.57,1.4h0Zm-5.78,0,.13-.07a9.51,9.51,0,0,0-.49-1.51c-.35-.71-.13-1.12.51-1.49a15.72,15.72,0,0,0,1.41-1H11.85c-.38,0-.58-.09-.68-.48-.19-.68-.44-1.35-.72-2.18-.24.74-.46,1.32-.62,1.92s-.36.83-1,.75a16.22,16.22,0,0,0-2,0A18.621,18.621,0,0,0,8.4,14.93a.83.83,0,0,1,.38,1.21A7,7,0,0,0,8.25,18c.65-.47,1.22-.85,1.76-1.27a.53.53,0,0,1,.78,0c.53.37,1.1.74,1.66,1.14Zm7.3-5.38c-.6.43-1.05.22-1.51-.27.29.71,0,1.11-.63,1.37a.94.94,0,0,1,1,1.1c.37-.35.42-1.09,1.14-.69.13.08.18-.19.09-.26-.51-.39-.37-.77-.14-1.28ZM15.23,9.93a3.69,3.69,0,0,1,.41.87c0,.24-.38.33-.31.71.66-.32,1,.13,1.32.64-.16-.79.21-1.13,1-1.24-.84-.12-.9-.64-.84-1.29a1,1,0,0,1-1.58.31Zm2.35,9.12c-.84,0-1-.53-1-1.22-.31.67-.74.93-1.49.57a1.028,1.028,0,0,1,.14,1.61c.7-.6,1.07-.11,1.57.44C16.65,19.63,16.87,19.22,17.58,19.05Z" fill="#d70228"/>
    <path id="Path_317" data-name="Path 317" d="M12.45,17.87c-.56-.4-1.13-.77-1.66-1.2a.53.53,0,0,0-.78,0c-.54.42-1.11.8-1.76,1.27a7,7,0,0,1,.53-1.81.83.83,0,0,0-.38-1.21,18.62,18.62,0,0,1-1.62-1.16,16.221,16.221,0,0,1,2,0c.64.08.86-.22,1-.75s.38-1.18.62-1.92c.28.83.53,1.5.72,2.18.1.39.3.49.68.48h2.21a15.72,15.72,0,0,1-1.41,1c-.64.37-.86.78-.51,1.49a9.51,9.51,0,0,1,.49,1.51Z" fill="#fdd543"/>
    <path id="Path_318" data-name="Path 318" d="M19.75,12.49c-.23.49-.37.89.11,1.25.09.07,0,.34-.09.26-.72-.4-.77.34-1.14.69a.94.94,0,0,0-1-1.1c.64-.26.92-.66.63-1.37C18.7,12.71,19.15,12.92,19.75,12.49Z" fill="#fbcb42"/>
    <path id="Path_319" data-name="Path 319" d="M15.23,9.93a1,1,0,0,0,1.54-.31c-.06.65,0,1.17.84,1.29-.75.11-1.12.45-1,1.24-.34-.51-.66-1-1.32-.64-.07-.38.35-.47.31-.71a3.69,3.69,0,0,0-.37-.87Z" fill="#fbcb42"/>
    <path id="Path_320" data-name="Path 320" d="M17.58,19.05c-.71.17-.93.58-.74,1.4-.5-.55-.87-1-1.57-.44.44-.62.46-1.12-.14-1.61.75.36,1.18.1,1.49-.57C16.6,18.52,16.74,19,17.58,19.05Z" fill="#fbcb42"/>
    <path id="Path_321" data-name="Path 321" d="M18.23,17.9a1,1,0,0,0-.57-1.4c.8.19,1.13-.2,1.23-.93.43.86.43.86,1.21.95-.08.31-.46.32-.56.58s.23.47,0,.83c-.44-.65-.89-.21-1.35,0Z" fill="#fcce42"/>
    <path id="Path_322" data-name="Path 322" d="M18.23,17.89l-.05.06h0Z" fill="#fcce42"/>
  </g>
</svg>
