<svg id="Слой_2" data-name="Слой 2" xmlns="http://www.w3.org/2000/svg" width="30" height="30" viewBox="0 0 30 30">
  <g id="Слой_1" data-name="Слой 1">
    <path id="Path_284" data-name="Path 284" d="M14.94,24.86a10,10,0,0,1-10-10.13A10.034,10.034,0,1,1,25,15.3,10,10,0,0,1,14.94,24.86ZM11.5,14.94a3.44,3.44,0,1,0,3.44-3.44,3.38,3.38,0,0,0-3.44,3.44ZM11,8.48A5.74,5.74,0,0,0,10.4,8c-.19-.13-.26.08-.35.17-.64.63-1.26,1.29-1.93,1.89-.29.27-.18.4,0,.6s.34.33.61.05c.61-.66,1.27-1.27,1.91-1.91ZM9.41,11.83a.275.275,0,0,0,.16-.11c.71-.7,1.43-1.39,2.13-2.11.27-.28-.1-.38-.22-.55s-.27-.21-.46,0c-.65.66-1.33,1.32-2,2-.09.09-.29.18-.14.35a1.17,1.17,0,0,0,.53.42Zm11.66-.55-.14-.18L18.8,9c-.27-.26-.36.07-.5.17s-.31.28-.07.51c.69.66,1.36,1.34,2,2,.12.12.23.19.38.05ZM10.23,12.81a1.81,1.81,0,0,0,.24-.15c.73-.72,1.46-1.43,2.17-2.16.25-.26-.1-.34-.2-.49a.3.3,0,0,0-.52,0c-.65.66-1.33,1.32-2,2-.11.1-.23.21-.09.37Zm0,4.2c-.13.18-.24.36-.37.52s0,.31.11.42c.65.65,1.31,1.28,1.95,1.94.28.3.42.07.61-.09s.23-.34,0-.55c-.67-.63-1.31-1.28-2-1.93Zm.74,4.4a2.58,2.58,0,0,0-.21-.25c-.68-.69-1.38-1.36-2.05-2.05-.27-.28-.39,0-.55.1s-.35.29-.07.55c.68.63,1.32,1.29,2,1.94.09.09.15.3.35.16s.33-.29.56-.45ZM20.43,8.83A3,3,0,0,0,19.51,8c-.2.16-.58.36-.47.58a1.38,1.38,0,0,0,.84.78C20.08,9.39,20.31,9.06,20.43,8.83ZM22,10.39a2.92,2.92,0,0,0-.87-.88,1.27,1.27,0,0,0-.54.51,3.1,3.1,0,0,0,.83.9A1.42,1.42,0,0,0,22,10.39Zm-4.34-.56c-.11.17-.53.33-.43.54a1.88,1.88,0,0,0,.83.82c.16.08.41-.28.56-.51a2.25,2.25,0,0,0-1-.85Zm2,2.92c.18-.15.54-.33.48-.55a1.36,1.36,0,0,0-.81-.83c-.21-.09-.41.29-.57.49a3.18,3.18,0,0,0,.83.89Zm.5,4.85c-.18-.12-.33-.54-.56-.42a2.23,2.23,0,0,0-.83.84c-.05.09.29.42.55.52s.79-.76.77-.94Zm-9.82,1.34c0-.13-.78-.92-.88-.88a1.21,1.21,0,0,0-.54.51,2.81,2.81,0,0,0,.83.89c.25-.08.35-.34.52-.52Zm9.86.52a2.87,2.87,0,0,0,.91-.85,1.12,1.12,0,0,0-.51-.54,2.43,2.43,0,0,0-.91.81c0,.28.25.42.44.58Zm-1.55-.31c-.19-.15-.3-.42-.59-.49a3,3,0,0,0-.84.9c.16.19.3.42.56.49a2.35,2.35,0,0,0,.8-.9Zm2.84-.2a3.35,3.35,0,0,0-.88.88,1.29,1.29,0,0,0,.53.53,2.82,2.82,0,0,0,.89-.83,1.51,1.51,0,0,0-.61-.53ZM11.8,20.46a2.66,2.66,0,0,0-.89-.88c-.22.16-.6.36-.5.58a1.44,1.44,0,0,0,.84.8C11.45,21,11.67,20.67,11.8,20.46Zm6.82.53a2.82,2.82,0,0,0,.87-.89c-.15-.22-.36-.58-.57-.49a1.31,1.31,0,0,0-.81.83c-.05.21.3.42.51.56Zm1.25-.5a3,3,0,0,0-.86.89c.16.21.37.59.58.49a1.5,1.5,0,0,0,.8-.84C20.43,20.83,20.09,20.61,19.87,20.49Z" fill="#eee"/>
    <path id="Path_285" data-name="Path 285" d="M11.5,14.94a3.44,3.44,0,1,1,6.87,0Z" fill="#d2042c"/>
    <path id="Path_286" data-name="Path 286" d="M11.5,14.94h6.87a3.44,3.44,0,1,1-6.87,0Z" fill="#0253b4"/>
    <path id="Path_287" data-name="Path 287" d="M11,8.48l-.28.33c-.64.64-1.3,1.25-1.91,1.91-.27.28-.41.15-.61-.05s-.32-.33,0-.6c.67-.6,1.29-1.26,1.93-1.89.09-.09.16-.3.35-.17A5.74,5.74,0,0,1,11,8.48Z" fill="#121212"/>
    <path id="Path_288" data-name="Path 288" d="M9.41,11.83a1.17,1.17,0,0,1-.52-.46c-.15-.17,0-.26.14-.35.66-.66,1.34-1.32,2-2,.19-.19.33-.17.46,0s.49.27.22.55c-.7.72-1.42,1.41-2.13,2.11C9.53,11.77,9.46,11.79,9.41,11.83Z" fill="#121212"/>
    <path id="Path_289" data-name="Path 289" d="M21.07,11.28l-.42.46c-.15.14-.26.07-.38-.05-.68-.68-1.35-1.36-2-2-.24-.23-.11-.38.07-.51s.23-.43.5-.17l2.13,2.11Z" fill="#121212"/>
    <path id="Path_290" data-name="Path 290" d="M10.23,12.81l-.39-.48c-.14-.16,0-.27.09-.37.66-.66,1.34-1.32,2-2,.21-.22.38-.18.52,0s.45.23.2.49c-.71.73-1.44,1.44-2.17,2.16a1.81,1.81,0,0,1-.25.2Z" fill="#121212"/>
    <path id="Path_291" data-name="Path 291" d="M10.22,17l.35.31c.65.65,1.29,1.3,2,1.93.22.21.23.35,0,.55s-.33.39-.61.09c-.64-.66-1.3-1.29-1.95-1.94-.11-.11-.27-.22-.11-.42S10.09,17.19,10.22,17Z" fill="#121212"/>
    <path id="Path_292" data-name="Path 292" d="M11,21.41c-.19.16-.36.32-.55.45s-.26-.07-.35-.16c-.66-.65-1.3-1.31-2-1.94-.28-.26-.1-.38.07-.55s.28-.38.55-.1c.67.69,1.37,1.36,2.05,2.05A2.58,2.58,0,0,1,11,21.41Z" fill="#121212"/>
    <path id="Path_293" data-name="Path 293" d="M20.43,8.83c-.12.23-.35.56-.55.52A1.38,1.38,0,0,1,19,8.57c-.11-.22.27-.42.47-.58a3,3,0,0,1,.96.84Z" fill="#121212"/>
    <path id="Path_294" data-name="Path 294" d="M22,10.39a1.42,1.42,0,0,1-.58.53,3.1,3.1,0,0,1-.83-.9,1.27,1.27,0,0,1,.54-.51,2.92,2.92,0,0,1,.87.88Z" fill="#121212"/>
    <path id="Path_295" data-name="Path 295" d="M17.62,9.83a2.25,2.25,0,0,1,1,.85c-.15.23-.4.59-.56.51a1.88,1.88,0,0,1-.83-.82C17.09,10.16,17.51,10,17.62,9.83Z" fill="#121212"/>
    <path id="Path_296" data-name="Path 296" d="M19.59,12.75a3.18,3.18,0,0,1-.9-.89c.16-.2.36-.58.57-.49a1.36,1.36,0,0,1,.81.83C20.13,12.42,19.77,12.6,19.59,12.75Z" fill="#121212"/>
    <path id="Path_297" data-name="Path 297" d="M20.09,17.6c0,.18-.72,1-.84.94s-.6-.43-.55-.52a2.23,2.23,0,0,1,.83-.84C19.76,17.06,19.91,17.48,20.09,17.6Z" fill="#171717"/>
    <path id="Path_298" data-name="Path 298" d="M10.27,18.94c-.17.18-.31.44-.59.52a2.81,2.81,0,0,1-.83-.89,1.21,1.21,0,0,1,.54-.51C9.49,18,10.28,18.81,10.27,18.94Z" fill="#171717"/>
    <path id="Path_299" data-name="Path 299" d="M20.13,19.46c-.19-.16-.44-.3-.51-.58a2.43,2.43,0,0,1,.91-.81,1.12,1.12,0,0,1,.51.54A2.87,2.87,0,0,1,20.13,19.46Z" fill="#171717"/>
    <path id="Path_300" data-name="Path 300" d="M18.58,19.15a2.35,2.35,0,0,1-.87.9c-.26-.07-.4-.3-.56-.49a3,3,0,0,1,.84-.9C18.28,18.73,18.39,19,18.58,19.15Z" fill="#171717"/>
    <path id="Path_301" data-name="Path 301" d="M21.42,19a1.51,1.51,0,0,1,.54.58,2.82,2.82,0,0,1-.89.83,1.29,1.29,0,0,1-.53-.53,3.35,3.35,0,0,1,.88-.88Z" fill="#121212"/>
    <path id="Path_302" data-name="Path 302" d="M11.8,20.46c-.13.21-.35.55-.55.5a1.44,1.44,0,0,1-.84-.8c-.1-.22.28-.42.5-.58a2.66,2.66,0,0,1,.89.88Z" fill="#171717"/>
    <path id="Path_303" data-name="Path 303" d="M18.62,21c-.21-.13-.56-.34-.51-.55a1.31,1.31,0,0,1,.81-.83c.21-.09.42.27.57.49a2.82,2.82,0,0,1-.87.89Z" fill="#171717"/>
    <path id="Path_304" data-name="Path 304" d="M19.87,20.49c.22.12.56.34.52.54a1.5,1.5,0,0,1-.8.84c-.21.1-.42-.28-.58-.49a3,3,0,0,1,.86-.89Z" fill="#121212"/>
  </g>
</svg>
