<svg id="Слой_2" data-name="Слой 2" xmlns="http://www.w3.org/2000/svg" width="30" height="30" viewBox="0 0 30 30">
    <g id="Слой_1" data-name="Слой 1">
        <path id="Path_201" data-name="Path 201" d="M6.85,15.08c.4-.61.77-1.18,1.17-1.74A11.77,11.77,0,0,1,12,9.78a9.28,9.28,0,0,1,7.69-.48,12.22,12.22,0,0,1,4.53,2.76.82.82,0,0,0,.76.24,3.542,3.542,0,1,1-2.76,2.15.53.53,0,0,0-.18-.75,9.2,9.2,0,0,0-5.09-2.28,6.29,6.29,0,0,0-4.49,1.23,11.14,11.14,0,0,0-3.15,3.67c.14.15.28.05.4,0,.63-.17,1.25-.37,1.89-.52a1.33,1.33,0,0,1,1.57,1,1.27,1.27,0,0,1-.88,1.54q-2.73.83-5.48,1.6a1.28,1.28,0,0,1-1.53-.83q-.83-2.76-1.58-5.55A1.29,1.29,0,0,1,4.58,12a1.33,1.33,0,0,1,1.61.87c.13.36.22.74.33,1.11S6.73,14.67,6.85,15.08Z" transform="translate(-1.658 0.314)" fill="#717171"/>
    </g>
</svg>
