<svg xmlns="http://www.w3.org/2000/svg" width="30" height="30" viewBox="0 0 30 30">
  <g id="RUBLE" transform="translate(-945.539 -524.65)">
    <g id="Group_2030" data-name="Group 2030" transform="translate(945.54 524.65)">
      <path id="Path_227" data-name="Path 227" d="M960.6,550.62a11.081,11.081,0,1,1,11.109-10.956A11.075,11.075,0,0,1,960.6,550.62Zm-9.182-7.654c.168-1.77.168-1.82,1.779-1.77.929.03,1.206-.307,1.176-1.2-.059-1.79-.02-3.59-.01-5.379,0-.386-.1-.9.524-.88,2.481.069,4.982-.307,7.433.227a4.824,4.824,0,0,1,3.459,4.994,4.773,4.773,0,0,1-4.211,4.47,38.09,38.09,0,0,1-3.825.158c-.415.01-.929-.119-.919.593s.544.564.949.564c1.394.01,2.777.02,4.171,0,.949-.01,1.008.554,1.018,1.3.02.771-.336.92-1,.9-1.423-.03-2.857-.01-4.28-.01-.425,0-.86.02-.85.593.01.5-.267,1.127.524,1.375a9.915,9.915,0,1,0,3.193-19.283,9.8,9.8,0,0,0-9.6,7.96,8.842,8.842,0,0,0,.465,5.389Zm5.4-4.282c0,2.492,0,2.492,2.53,2.492a11.665,11.665,0,0,0,1.315-.02,2.638,2.638,0,0,0,2.451-2.4,2.518,2.518,0,0,0-1.858-2.531,8.918,8.918,0,0,0-1.858-.079C956.815,536.133,956.815,536.133,956.815,538.685Zm-3.884,4.9c-.3.079-.81-.237-1.077.208-.148.247.089.6.316.742a2.655,2.655,0,0,0,1.987.109c.267-.049.208-.425.188-.672a.4.4,0,0,0-.435-.386c-.3-.01-.583,0-.979,0Z" transform="translate(-945.54 -524.65)" fill="#b9b9b9"/>
    </g>
  </g>
</svg>
