<svg id="Слой_2" data-name="Слой 2" xmlns="http://www.w3.org/2000/svg" width="30" height="30" viewBox="0 0 30 30">
  <g id="Слой_1" data-name="Слой 1">
    <path id="Path_254" data-name="Path 254" d="M5.67,17.88a9,9,0,0,1,0-6.91H24.34a9.63,9.63,0,0,1,0,6.87Z" fill="#0052b3"/>
    <path id="Path_255" data-name="Path 255" d="M5.67,17.88H24.3a10,10,0,0,1-18.59.25A1.09,1.09,0,0,1,5.67,17.88Z" fill="#d5022a"/>
    <path id="Path_256" data-name="Path 256" d="M24.34,11H5.67A7.89,7.89,0,0,1,7.45,7.92a9.6,9.6,0,0,1,8.19-3.4,9.77,9.77,0,0,1,7.38,4A9.89,9.89,0,0,1,24.34,11Z" fill="#ecedee"/>
  </g>
</svg>
