<svg xmlns="http://www.w3.org/2000/svg" width="30" height="30" viewBox="0 0 30 30">
  <g id="SIGN_AS_A_DRIVER" data-name="SIGN AS A DRIVER" transform="translate(-695 -30)">
    <g id="Group_1780" data-name="Group 1780" transform="translate(-680 -45)">
      <circle id="Ellipse_132" data-name="Ellipse 132" cx="10" cy="10" r="10" transform="translate(1380 80)" fill="#97e3e5"/>
    </g>
    <rect id="Rectangle_345" data-name="Rectangle 345" width="30" height="30" transform="translate(695 30)" fill="none"/>
    <g id="Group_1983" data-name="Group 1983" transform="translate(430.473 -38.062)">
      <path id="Union_41" data-name="Union 41" d="M0,3.665A2.961,2.961,0,0,1,.507,2L.214,1.524A1,1,0,0,1,1.067,0H4.674a1,1,0,0,1,.853,1.523L5.234,2A2.962,2.962,0,0,1,5.74,3.665,2.9,2.9,0,0,1,2.87,6.6,2.9,2.9,0,0,1,0,3.665Z" transform="translate(276.773 75.999)" fill="#fff"/>
      <path id="Path_165" data-name="Path 165" d="M-16919-3435.056a3.622,3.622,0,0,1,3.646-2.945,3.626,3.626,0,0,1,3.65,2.945" transform="translate(17194.996 3522.874)" fill="none" stroke="#fff" stroke-linecap="round" stroke-width="1.5"/>
      <path id="Path_166" data-name="Path 166" d="M-16918.807-3434.578a6.983,6.983,0,0,1,1.791-3.713" transform="translate(17192.645 3522.64)" fill="none" stroke="#fff" stroke-linecap="round" stroke-width="1.5"/>
      <path id="Path_167" data-name="Path 167" d="M-16917.4-3434.589a7.019,7.019,0,0,0-1.783-3.781" transform="translate(17202.932 3522.651)" fill="none" stroke="#fff" stroke-linecap="round" stroke-width="1.5"/>
    </g>
  </g>
</svg>
