<svg id="Слой_2" data-name="Слой 2" xmlns="http://www.w3.org/2000/svg" width="30" height="30" viewBox="0 0 30 30">
  <g id="Слой_1" data-name="Слой 1">
    <path id="Path_250" data-name="Path 250" d="M5.7,18.38a9,9,0,0,1,0-6.89H24.3a8.92,8.92,0,0,1,0,6.88Z" fill="#fed944"/>
    <path id="Path_251" data-name="Path 251" d="M5.7,18.38H24.3a9.17,9.17,0,0,1-4.17,5.07A10,10,0,0,1,5.8,18.75a2.24,2.24,0,0,1-.1-.37Z" fill="#d80428"/>
    <path id="Path_252" data-name="Path 252" d="M24.3,11.49H5.7a9.52,9.52,0,0,1,6.46-6.06,10,10,0,0,1,12,5.7,2.12,2.12,0,0,1,.14.36Z" fill="#d80428"/>
  </g>
</svg>
