<svg xmlns="http://www.w3.org/2000/svg" width="30" height="30" viewBox="0 0 30 30">
  <g id="STEP_2_ACTIVE" data-name="STEP 2 ACTIVE" transform="translate(-773 -377)">
    <g id="Group_225" data-name="Group 225" transform="translate(776 382)">
      <g id="Path_36" data-name="Path 36" transform="translate(4.198)" fill="#fff">
        <path d="M 9.848226547241211 18.19646263122559 C 5.244996547698975 18.19646263122559 1.499996542930603 14.45146369934082 1.499996542930603 9.848233222961426 C 1.499996542930603 5.245003223419189 5.244996547698975 1.500003218650818 9.848226547241211 1.500003218650818 C 14.45145702362061 1.500003218650818 18.19645690917969 5.245003223419189 18.19645690917969 9.848233222961426 C 18.19645690917969 14.45146369934082 14.45145702362061 18.19646263122559 9.848226547241211 18.19646263122559 Z" stroke="none"/>
        <path d="M 9.848226547241211 3.000003814697266 C 6.072096824645996 3.000003814697266 2.999996185302734 6.072103500366211 2.999996185302734 9.848233222961426 C 2.999996185302734 13.62436294555664 6.072096824645996 16.69646263122559 9.848226547241211 16.69646263122559 C 13.62435722351074 16.69646263122559 16.69645690917969 13.62436294555664 16.69645690917969 9.848233222961426 C 16.69645690917969 6.072103500366211 13.62435722351074 3.000003814697266 9.848226547241211 3.000003814697266 M 9.848226547241211 3.814697265625e-06 C 15.28725624084473 3.814697265625e-06 19.69645690917969 4.40920352935791 19.69645690917969 9.848233222961426 C 19.69645690917969 15.28726387023926 15.28725624084473 19.69646263122559 9.848226547241211 19.69646263122559 C 4.409196853637695 19.69646263122559 -3.814697265625e-06 15.28726387023926 -3.814697265625e-06 9.848233222961426 C -3.814697265625e-06 4.40920352935791 4.409196853637695 3.814697265625e-06 9.848226547241211 3.814697265625e-06 Z" stroke="none" fill="#97e3e5"/>
      </g>
      <g id="Path_35" data-name="Path 35" transform="translate(0 5.248)" fill="#97e3e5">
        <path d="M 7.224341869354248 12.94869518280029 C 4.067931652069092 12.94869518280029 1.500001907348633 10.38076496124268 1.500001907348633 7.224345207214355 C 1.500001907348633 4.067934989929199 4.067931652069092 1.50000524520874 7.224341869354248 1.50000524520874 C 10.38075160980225 1.50000524520874 12.94868183135986 4.067934989929199 12.94868183135986 7.224345207214355 C 12.94868183135986 10.38076496124268 10.38075160980225 12.94869518280029 7.224341869354248 12.94869518280029 Z" stroke="none"/>
        <path d="M 7.224341869354248 2.999995231628418 C 4.895031929016113 2.999995231628418 3.000001907348633 4.895034790039063 3.000001907348633 7.224345207214355 C 3.000001907348633 9.553655624389648 4.895031929016113 11.44868469238281 7.224341869354248 11.44868469238281 C 9.553651809692383 11.44868469238281 11.44868183135986 9.553655624389648 11.44868183135986 7.224345207214355 C 11.44868183135986 4.895034790039063 9.553651809692383 2.999995231628418 7.224341869354248 2.999995231628418 M 7.224341869354248 -4.76837158203125e-06 C 11.21423149108887 -4.76837158203125e-06 14.44868183135986 3.234445571899414 14.44868183135986 7.224345207214355 C 14.44868183135986 11.2142448425293 11.21423149108887 14.44868564605713 7.224341869354248 14.44868564605713 C 3.234452247619629 14.44868564605713 1.9073486328125e-06 11.2142448425293 1.9073486328125e-06 7.224345207214355 C 1.9073486328125e-06 3.234445571899414 3.234452247619629 -4.76837158203125e-06 7.224341869354248 -4.76837158203125e-06 Z" stroke="none" fill="#97e3e5"/>
      </g>
    </g>
    <rect id="Rectangle_366" data-name="Rectangle 366" width="30" height="30" transform="translate(773 377)" fill="none"/>
  </g>
</svg>
