<svg xmlns="http://www.w3.org/2000/svg" width="30" height="30" viewBox="0 0 30 30">
  <g id="YUAN_ACTIVE" data-name="YUAN ACTIVE" transform="translate(-945.541 -524.64)">
    <g id="Group_2031" data-name="Group 2031" transform="translate(945.54 524.64)">
      <path id="Path_231" data-name="Path 231" d="M975.53,539.64c0,4.769-.01,9.537.01,14.306,0,.506-.06.694-.654.694q-14.37-.03-28.731,0c-.545,0-.6-.139-.6-.634q.03-14.365-.01-28.721c0-.644.258-.634.714-.634q14.311.015,28.622-.01c.575,0,.664.159.664.684C975.52,530.1,975.53,534.871,975.53,539.64Zm-3.779-.02a11.1,11.1,0,1,0-11.127,11.024A11.094,11.094,0,0,0,971.752,539.62Z" transform="translate(-945.54 -524.64)" fill="none"/>
      <path id="Path_232" data-name="Path 232" d="M971.72,539.619a11.065,11.065,0,1,1-11.035-11.159,11.063,11.063,0,0,1,11.035,11.159Zm-20.4-3.163a9.056,9.056,0,0,0,1.305,8.767,5.115,5.115,0,0,0,1.978,2.046,3.863,3.863,0,0,0,2.156,1.245,4.828,4.828,0,0,0,2.719.791,6.747,6.747,0,0,0,2.274.049,9.9,9.9,0,1,0-2.937-19.56,8.621,8.621,0,0,0-5.874,3.667,5.435,5.435,0,0,0-1.622,2.995Z" transform="translate(-945.54 -524.64)" fill="#fdd165"/>
      <path id="Path_234" data-name="Path 234" d="M952.99,533.52a88.661,88.661,0,0,0,5.33,9.44,95.139,95.139,0,0,0,4.83-8.57c.35-.7,2.55-1.29,3.17-.82.38.29.02.6-.12.85q-2.1,3.66-4.24,7.29c-.56.96-1.15,1.9-1.75,2.83-.35.54-.28.8.42.77.59-.03,1.18-.01,1.78-.01,1.47,0,1.45.01,1.37,1.49-.03.54-.22.71-.73.7-.74-.03-1.49.07-2.22-.02-1.08-.13-1.38.33-1.24,1.3a5.058,5.058,0,0,1,.01.78,4.8,4.8,0,0,1-2.75-.8c.24-1.1-.24-1.49-1.3-1.33-.29.04-.59.04-.88.06a5.238,5.238,0,0,1-2-2.07,13.885,13.885,0,0,1,3.09-.09c.78,0,.79-.25.44-.83-1.63-2.64-3.24-5.3-4.85-7.95a5.381,5.381,0,0,1,1.64-3.02Z" transform="translate(-945.636 -524.801)" fill="#737373"/>
    </g>
  </g>
</svg>
