<svg xmlns="http://www.w3.org/2000/svg" width="30" height="30" viewBox="0 0 30 30">
  <g id="YUAN" transform="translate(-945.529 -524.65)">
    <g id="Group_2032" data-name="Group 2032" transform="translate(945.53 524.65)">
      <path id="Path_237" data-name="Path 237" d="M945.56,524.67c9.722,0,19.455.01,29.177-.02.654,0,.793.129.793.793q-.045,14.212,0,28.414c0,.654-.129.793-.793.793q-14.212-.045-28.414,0c-.654,0-.793-.129-.793-.793Q945.575,539.259,945.56,524.67Zm15.1,3.756a11.105,11.105,0,1,0,11.07,11.16,11.105,11.105,0,0,0-11.07-11.16Z" transform="translate(-945.53 -524.65)" fill="none"/>
      <path id="Path_238" data-name="Path 238" d="M960.665,528.46a11.07,11.07,0,1,1-11.095,11.065,11.07,11.07,0,0,1,11.095-11.065Zm-2.47,14.3a61.518,61.518,0,0,0,4.446-7.854,2.112,2.112,0,0,1,2.411-1.452c1.393.109,1.433.089.741,1.314-.069.128-.148.247-.227.375-1.788,3.013-3.547,6.046-5.384,9.03-.543.889-.188.978.583.948.622-.02,1.245.049,1.867-.02.939-.109.948.425.978,1.126.03.78-.148,1.156-1.018,1.077-.8-.069-1.61-.02-2.411-.01-.286,0-.573-.04-.711.346-.425,1.146.109,1.917,1.314,1.847,6.293-.385,10.393-5.523,9.633-11.174a9.866,9.866,0,0,0-16.993-5.542.811.811,0,0,0-.227,1.057A71.786,71.786,0,0,0,958.195,542.756Zm-6.916-6.372a9.719,9.719,0,0,0,.919,8.328.783.783,0,0,0,.81.415c.869-.02,1.749-.02,2.618,0,.662.01.909-.158.484-.81-.524-.79-1-1.6-1.492-2.411C953.551,540.138,952.484,538.369,951.279,536.383Zm3.547,10.917c-.01.069-.02.148-.03.217.4.257.78.524,1.176.761.217.128.5.257.682.02a1.068,1.068,0,0,0,.1-.622c-.02-.336-.277-.375-.553-.385-.454.01-.909.01-1.373.01Z" transform="translate(-945.53 -524.65)" fill="#b9b9b9"/>
    </g>
  </g>
</svg>
