<svg xmlns="http://www.w3.org/2000/svg" width="42" height="42" viewBox="0 0 42 42">
    <g id="GOOGLE" transform="translate(-939.531 -518.575)">
        <g id="Group_2021" data-name="Group 2021">
            <path id="Union_43" data-name="Union 43" d="M22513.1,5878.52a11.138,11.138,0,0,1-2.338-3.574h-.01a.107.107,0,0,1-.043-.146c.031-.118.027-.214-.053-.271a.244.244,0,0,1,.045.257.316.316,0,0,1-.17-.31h0a1.56,1.56,0,0,1-.232-.679c.094-.083.1-.132.059-.168.027.033.014.081-.068.157-.1-.045-.1-.136-.08-.226h.01c-.021-.067-.039-.145-.061-.212.123-.106.121-.165.059-.2.049.036.043.091-.07.188a.235.235,0,0,1-.092-.243h.01a3.455,3.455,0,0,1-.217-1.042c.141-.158.123-.266-.086-.339-.021-.187-.033-.379-.051-.565.123-.3.27-.591,0-.845.26.252.119.545-.008.833a1.674,1.674,0,0,1-.1-.922l.012.007a5.69,5.69,0,0,1,0-1.376c.365-.232.258-.521.1-.809.018-.192.029-.384.051-.571.209-.062.238-.181.086-.339a2.991,2.991,0,0,1,.219-1.052h-.01c-.006-.1,0-.181.09-.232.111.1.113.16.061.193.063-.033.068-.086-.049-.193.023-.079.039-.147.063-.226.141-.034.236-.079.078-.221a.454.454,0,0,1,.119-.351c.311-.119.283-.4.3-.662a3.16,3.16,0,0,1,.607-1.3h-.008a.454.454,0,0,1,.217-.346c0,.146.012.292-.133.333.162-.044.156-.193.146-.333a1.5,1.5,0,0,1,.457-.685c.186,0,.24-.109.215-.268.012.148-.045.252-.213.263a.373.373,0,0,1,.209-.293v.009a10.329,10.329,0,0,1,3.51-3.176c.158.017.283-.012.3-.2a8.459,8.459,0,0,1,2.652-1.148c.146.158.2.062.227-.09.078-.012.152-.028.23-.04.148.181.2.068.232-.08a3.752,3.752,0,0,1,1.391-.237c.215.136.42.215.566-.09a2.406,2.406,0,0,1,.807-.04.285.285,0,0,0,.465,0,4.766,4.766,0,0,1,1.27.04l-.008-.011a.482.482,0,0,1,.457.08c-.16.137-.314.183-.422-.006.111.206.258.152.43.017a4.251,4.251,0,0,1,1.385.226h0a1.313,1.313,0,0,1,.68.214.642.642,0,0,1-.426.036.619.619,0,0,0,.438-.036,2.364,2.364,0,0,1,.789.255.01.01,0,0,1,0-.006.368.368,0,0,1,.324.169c-.125.03-.229.023-.285-.071.051.106.162.115.3.083a4.019,4.019,0,0,1,1.514.711h0a.363.363,0,0,1,.311.209.233.233,0,0,1-.262-.062c.053.08.152.094.273.074a2.763,2.763,0,0,1,1.063.713.33.33,0,0,1,.273.214.342.342,0,0,1-.16-.01.293.293,0,0,0,.182.021,1.69,1.69,0,0,1,.166.134l0-.017c.313.15.262.29,0,.424v.029c-1.023,1.159-2.16,2.2-3.23,3.309-.209.22-.4.141-.6-.011a8.849,8.849,0,0,0-1.8-.991.647.647,0,0,0-.057-.1c.016.026.031.055.047.087a1.357,1.357,0,0,1-.545-.2h-.01c-.191-.045-.391-.084-.582-.13a.547.547,0,0,0-.072-.139.513.513,0,0,1,.049.117.624.624,0,0,1-.432-.065h0c-.191,0-.379-.017-.57-.028-.023-.021-.049-.04-.072-.058a.439.439,0,0,1,.049.042h-1.105l-.02.017c-.152.011-.3.023-.463.028l-.016-.015a.362.362,0,0,1-.33.068l-.006.021a.631.631,0,0,1-.484.058l-.031-.005a.262.262,0,0,1-.279.139.033.033,0,0,0,0,.02c-.078.022-.15.027-.23.05-.006-.007-.014-.013-.02-.019a.2.2,0,0,1-.205.109.026.026,0,0,1,0,.017c-.441.2-.871.4-1.312.611h-.029a.328.328,0,0,1-.268.2v.024a.194.194,0,0,1-.193.119h-.025a.348.348,0,0,1-.246.191c0,.011,0,.021,0,.032a9.214,9.214,0,0,0-2.32,3.1l-.016.007a1.135,1.135,0,0,1-.213.54c0,.008,0,.016.008.024-.084.35-.164.689-.242,1.04a.82.82,0,0,1-.105.55.747.747,0,0,1-.123-.241.765.765,0,0,0,.121.263v1.491a.793.793,0,0,1,.1.557.356.356,0,0,1-.219-.174.333.333,0,0,0,.229.2.88.88,0,0,1,.053.486h0a.229.229,0,0,1,.107.3l-.037-.016a.488.488,0,0,0,.063.026,1.332,1.332,0,0,0,.037.232,11.589,11.589,0,0,0,1.3,2.348,7.93,7.93,0,0,0,8.3,2.708,6.123,6.123,0,0,0,4.615-4.128c.158-.481.09-.639-.441-.628-1.08.011-2.154.011-3.23.011-.859,0-1.719,0-2.578.006-.463.011-.594-.136-.582-.588.027-1.3.027-2.607,0-3.908-.012-.441.141-.554.559-.543q5.549.018,11.1,0c.322,0,.525.04.594.43.82,4.7-.979,10.452-5.889,13.279a12.641,12.641,0,0,1-6.32,1.66,12.973,12.973,0,0,1-9.562-4.1Zm-1.172-4.134a2.709,2.709,0,0,1-.818.551,2.426,2.426,0,0,0,.83-.557c.277-.207.551-.417.824-.63-.363.21-.564.43-.863.63Zm-2.178-2.669c.211.062.227.181.092.339-.143-.086-.143-.206-.143-.336Zm-.051-3.687c.158.289.271.577-.1.809A1.3,1.3,0,0,1,22509.7,5868.03Zm.143-.9c.135.159.119.271-.092.339a.277.277,0,0,1,.051-.339Zm.447-1.73c.152.142.051.187-.08.221a.182.182,0,0,1,.092-.222Zm.418-1.012c-.006.26.012.531-.3.662a1.047,1.047,0,0,1,.293-.66Zm5.021-5.809a.351.351,0,0,1,.3-.2.191.191,0,0,1-.059.151.2.2,0,0,1-.154.055.484.484,0,0,1-.115,0Zm2.953-1.352c.045-.1.135-.1.227-.091-.02.092-.047.172-.1.172-.109,0-.109-.028-.209-.078Zm.457-.13a.216.216,0,0,1,.23-.08c-.02.1-.047.175-.1.175-.072,0-.072-.033-.172-.093Zm1.623-.328a.711.711,0,0,1,.566-.09c-.072.158-.16.214-.26.214a.606.606,0,0,1-.369-.123Zm1.369-.119a.423.423,0,0,1,.459,0,.281.281,0,0,1-.461,0Z" transform="translate(-21562.043 -5330.007)" fill="#fefafa"/>
        </g>
    </g>
</svg>
