<svg xmlns="http://www.w3.org/2000/svg" width="42" height="42" viewBox="0 0 42 42">
    <g transform="translate(-672 -430)">
        <g transform="translate(678 324.565)">
            <path d="M30.836,133.722a2.124,2.124,0,0,0-.105-.2,16.066,16.066,0,0,0-3.083-3.567l-.032-.032L27.6,129.9l-.016-.016h-.016q-1.033-.985-1.307-1.324a1.243,1.243,0,0,1-.226-1.308,12.188,12.188,0,0,1,1.453-2.114q.662-.856,1.049-1.372,2.792-3.712,2.421-4.745l-.1-.161a.944.944,0,0,0-.5-.266,2.541,2.541,0,0,0-1.033-.04l-4.648.032a.6.6,0,0,0-.323.008l-.21.049-.081.04-.064.049a.717.717,0,0,0-.178.169,1.108,1.108,0,0,0-.161.282,26.355,26.355,0,0,1-1.727,3.632q-.6,1-1.1,1.735A8.349,8.349,0,0,1,20,125.635a5.855,5.855,0,0,1-.613.557q-.274.21-.419.178c-.1-.022-.188-.043-.275-.065a1.073,1.073,0,0,1-.363-.4,1.771,1.771,0,0,1-.186-.63q-.048-.38-.057-.654t.008-.775q.017-.5.016-.678,0-.613.024-1.332t.04-1.138q.016-.42.016-.888a3.73,3.73,0,0,0-.057-.734,2.513,2.513,0,0,0-.169-.517.87.87,0,0,0-.331-.387,1.865,1.865,0,0,0-.541-.218,10.74,10.74,0,0,0-2.179-.21,10.589,10.589,0,0,0-3.858.388,2.174,2.174,0,0,0-.613.484q-.291.355-.081.387a1.978,1.978,0,0,1,1.372.694l.1.194a3.087,3.087,0,0,1,.226.742,7.491,7.491,0,0,1,.145,1.178,12.564,12.564,0,0,1,0,2.018q-.081.84-.153,1.307a2.618,2.618,0,0,1-.218.759,3.2,3.2,0,0,1-.194.355.278.278,0,0,1-.081.081,1.209,1.209,0,0,1-.436.081,1.023,1.023,0,0,1-.549-.226,3.872,3.872,0,0,1-.67-.621,8.307,8.307,0,0,1-.783-1.106q-.436-.71-.9-1.679l-.258-.468Q7.715,121.866,7.3,121t-.742-1.671a1.064,1.064,0,0,0-.387-.516l-.081-.049a1.1,1.1,0,0,0-.258-.137,1.713,1.713,0,0,0-.371-.1l-4.422.032a1.124,1.124,0,0,0-.92.307l-.065.1a.522.522,0,0,0-.049.258,1.285,1.285,0,0,0,.1.436q.968,2.276,2.106,4.39T4.18,127.45q.839,1.291,1.711,2.437t1.154,1.469q.283.323.444.484l.4.387a9.575,9.575,0,0,0,1.138.928,19.412,19.412,0,0,0,1.663,1.066,9.019,9.019,0,0,0,2.123.855,7.339,7.339,0,0,0,2.356.267h1.856a1.286,1.286,0,0,0,.856-.355l.064-.081a1.07,1.07,0,0,0,.121-.3,1.64,1.64,0,0,0,.057-.444,5.318,5.318,0,0,1,.1-1.251,3.288,3.288,0,0,1,.275-.839,2.063,2.063,0,0,1,.347-.476,1.4,1.4,0,0,1,.275-.234,1.051,1.051,0,0,1,.129-.056,1.024,1.024,0,0,1,.912.25,5.357,5.357,0,0,1,.985.936q.46.557,1.105,1.251a7.6,7.6,0,0,0,1.13,1.033l.323.194a3.929,3.929,0,0,0,.84.355,1.809,1.809,0,0,0,.9.081l4.132-.064a1.873,1.873,0,0,0,.952-.2.8.8,0,0,0,.4-.444,1.25,1.25,0,0,0,.008-.549A2.026,2.026,0,0,0,30.836,133.722Z"
                  fill="#fff"/>
        </g>
    </g>
</svg>