<svg id="ACCOUNT" xmlns="http://www.w3.org/2000/svg" width="40" height="40" viewBox="0 0 40 40">
    <path id="Path_193" data-name="Path 193" d="M20.5,39.87a19.388,19.388,0,1,1,7.59-1.5,19.48,19.48,0,0,1-7.59,1.5Z" transform="translate(-0.5 -0.37)" fill="#707070"/>
    <path id="Path_194" data-name="Path 194" d="M20.5,1.37a19,19,0,1,0,7.4,1.5,18.75,18.75,0,0,0-7.4-1.5m0-1a20,20,0,1,1-20,20,20,20,0,0,1,20-20Z" transform="translate(-0.5 -0.37)" fill="#fff"/>
    <path id="Path_195" data-name="Path 195" d="M21.08,40.27C14.64,40.27,9,37,6.44,33.86c.67-4.56,5.34-8,10.86-8h7.41a12.25,12.25,0,0,1,7.21,2.27c1.9,1.32,3.1,2.49,3.53,4.76-2.06,2.16-4.39,4.52-7.12,5.72a18.86,18.86,0,0,1-7.25,1.67Zm-7.4-25.06A7.33,7.33,0,1,1,21,22.53h0a7.33,7.33,0,0,1-7.32-7.32Z" transform="translate(-0.5 -0.37)" fill="#ffd05e"/>
    <path id="Path_197" data-name="Path 197" d="M20.5,1.37a19,19,0,1,0,7.4,1.5,18.75,18.75,0,0,0-7.4-1.5m0-1a20,20,0,1,1-20,20,20,20,0,0,1,20-20Z" transform="translate(-0.5 -0.37)" fill="#fff"/>
</svg>
